<?xml version="1.0" encoding="UTF-8"?>
<!DOCTYPE svg PUBLIC "-//W3C//DTD SVG 1.1//EN" "http://www.w3.org/Graphics/SVG/1.1/DTD/svg11.dtd">
<!-- Creator: CorelDRAW -->
<svg xmlns="http://www.w3.org/2000/svg" xml:space="preserve" width="25mm" height="25mm" style="shape-rendering:geometricPrecision; text-rendering:geometricPrecision; image-rendering:optimizeQuality; fill-rule:evenodd; clip-rule:evenodd"
viewBox="0 0 1.43818 1.43818"
 xmlns:xlink="http://www.w3.org/1999/xlink">
 <defs>
  <style type="text/css">
   <![CDATA[
    .fil3 {fill:none}
    .fil6 {fill:black}
    .fil0 {fill:gray}
    .fil2 {fill:#c6c6c6}
    .fil1 {fill:white}
    .fil5 {fill:black;fill-rule:nonzero}
    .fil4 {fill:url(#id0)}
   ]]>
  </style>
  <radialGradient id="id0" gradientUnits="userSpaceOnUse" cx="0.529537" cy="0.568563" r="0.569628" fx="0.529537" fy="0.568563">
   <stop offset="0" style="stop-color:white"/>
   <stop offset="0.301961" style="stop-color:#F3F516"/>
   <stop offset="0.588235" style="stop-color:#FCCE00"/>
   <stop offset="1" style="stop-color:#FF9E67"/>
  </radialGradient>
 </defs>
 <g id="Layer_x0020_1">
  <metadata id="CorelCorpID_0Corel-Layer"/>
  <g id="_280012248">
   <rect id="_280272104" class="fil0" width="1.43818" height="1.43818"/>
   <g>
    <polygon id="_280270400" class="fil1" points="0.0459699,0.0459699 1.39116,0.0459699 0.817368,0.617582 0.0459699,1.39116 "/>
    <polygon id="_280270328" class="fil0" points="1.40038,0.0378011 1.40038,1.40038 0.0378011,1.40038 "/>
    <rect id="_280270256" class="fil2" x="0.170186" y="0.170186" width="1.09676" height="1.09676"/>
   </g>
   <g>
    <circle id="_281587272" class="fil3" cx="0.719085" cy="0.719085" r="0.432047"/>
    <circle id="_281587200" class="fil4" cx="0.721872" cy="0.710723" r="0.41811"/>
    <path id="_281587128" class="fil5" d="M0.719083 0.260828l2.87635e-005 0 0 0.000103549c0.126571,5.75271e-006 0.241136,0.0512739 0.324004,0.134142 0.0828505,0.0828563 0.134113,0.197398 0.134124,0.323958l0.000103549 0 0 5.17744e-005 0 2.87635e-005 -0.000103549 0c-5.75271e-006,0.126571 -0.0512739,0.241136 -0.134147,0.324004 -0.0828505,0.0828505 -0.197393,0.134113 -0.323952,0.134124l0 0.000103549 -5.75271e-005 0 -2.30108e-005 0 0 -0.000103549c-0.126577,-5.75271e-006 -0.241136,-0.0512739 -0.323998,-0.134147 -0.0828505,-0.0828505 -0.134113,-0.197393 -0.13413,-0.323952l-0.000103549 0 0 -5.75271e-005 0 -2.30108e-005 0.000103549 0c5.75271e-006,-0.126577 0.0512739,-0.241136 0.134142,-0.323998 0.0828563,-0.0828505 0.197398,-0.134113 0.323958,-0.13413l0 -0.000103549 5.17744e-005 0zm2.87635e-005 0.0523151l0 0.000103549 -2.87635e-005 0 -5.17744e-005 0 0 -0.000103549c-0.111953,1.15054e-005 -0.213403,0.0454867 -0.286899,0.118978 -0.0735024,0.0734966 -0.118983,0.174969 -0.118989,0.286939l0.000103549 0 0 2.30108e-005 0 5.75271e-005 -0.000103549 0c1.15054e-005,0.111959 0.0454867,0.213408 0.118978,0.286899 0.0734966,0.0735024 0.174969,0.118983 0.286939,0.118989l0 -0.000103549 2.30108e-005 0 5.75271e-005 0 0 0.000103549c0.111959,-1.15054e-005 0.213403,-0.0454809 0.286899,-0.118972 0.0735024,-0.0735024 0.118983,-0.174969 0.118989,-0.286945l-0.000103549 0 0 -2.87635e-005 0 -5.17744e-005 0.000103549 0c-1.15054e-005,-0.111953 -0.0454809,-0.213403 -0.118972,-0.286899 -0.0735024,-0.0735024 -0.174969,-0.118983 -0.286945,-0.118989z"/>
    <circle id="_281587056" class="fil6" cx="0.555923" cy="0.55867" r="0.0774452"/>
    <circle id="_281586984" class="fil6" cx="0.881733" cy="0.55867" r="0.0774452"/>
    <path id="_281586912" class="fil6" d="M0.719089 1.03388c-0.0813491,0 -0.147321,-0.0659721 -0.147321,-0.147321 0,-0.0813491 0.0659721,-0.147327 0.147321,-0.147327 0.0813491,0 0.147321,0.0659778 0.147321,0.147327 0,0.0813491 -0.0659721,0.147321 -0.147321,0.147321zm0 -0.0530803c-0.052039,0 -0.0942409,-0.0422076 -0.0942409,-0.0942409 0,-0.052039 0.0422019,-0.0942466 0.0942409,-0.0942466 0.052039,0 0.0942409,0.0422076 0.0942409,0.0942466 0,0.0520333 -0.0422019,0.0942409 -0.0942409,0.0942409z"/>
   </g>
  </g>
 </g>
</svg>
